<svg
  width="32"
  height="32"
  viewBox="0 0 32 32"
  fill="none"
  xmlns="http://www.w3.org/2000/svg"
>
  <path
    d="M6 2C3.79375 2 2 3.79375 2 6V26C2 28.2062 3.79375 30 6 30H26C28.2062 30 30 28.2062 30 26V6C30 3.79375 28.2062 2 26 2H6ZM23.0625 13.0625L15.0625 21.0625C14.475 21.65 13.525 21.65 12.9438 21.0625L8.94375 17.0625C8.35625 16.475 8.35625 15.525 8.94375 14.9438C9.53125 14.3625 10.4812 14.3563 11.0625 14.9438L14 17.8813L20.9375 10.9375C21.525 10.35 22.475 10.35 23.0562 10.9375C23.6375 11.525 23.6437 12.475 23.0562 13.0562L23.0625 13.0625Z"
    fill="currentColor"
  />
</svg>
