<svg xmlns="http://www.w3.org/2000/svg" version="1.1" xmlns:xlink="http://www.w3.org/1999/xlink" width="512" height="512" x="0" y="0" viewBox="0 0 48 48" style="enable-background:new 0 0 512 512" xml:space="preserve" fill-rule="evenodd" class=""><g><path d="m31.023 36.718 2.828 2.828a1 1 0 0 0 1.414 0l5.656-5.656a1 1 0 0 0-1.414-1.414l-4.949 4.949-2.121-2.121a1 1 0 0 0-1.414 1.414zM13 19.2c0-.583-.232-1.143-.644-1.556A2.205 2.205 0 0 0 10.8 17H9.2c-.583 0-1.143.232-1.556.644A2.205 2.205 0 0 0 7 19.2v1.6c0 .583.232 1.143.644 1.556.413.412.973.644 1.556.644h1.6c.583 0 1.143-.232 1.556-.644.412-.413.644-.973.644-1.556zm-2 0v1.6a.197.197 0 0 1-.059.141.197.197 0 0 1-.141.059H9.2a.197.197 0 0 1-.141-.059A.197.197 0 0 1 9 20.8v-1.6c0-.053.021-.104.059-.141A.197.197 0 0 1 9.2 19h1.6c.053 0 .104.021.141.059A.197.197 0 0 1 11 19.2zM13 27.2c0-.583-.232-1.143-.644-1.556A2.205 2.205 0 0 0 10.8 25H9.2c-.583 0-1.143.232-1.556.644A2.205 2.205 0 0 0 7 27.2v1.6c0 .583.232 1.143.644 1.556.413.412.973.644 1.556.644h1.6c.583 0 1.143-.232 1.556-.644.412-.413.644-.973.644-1.556zm-2 0v1.6a.197.197 0 0 1-.059.141.197.197 0 0 1-.141.059H9.2a.197.197 0 0 1-.141-.059A.197.197 0 0 1 9 28.8v-1.6c0-.053.021-.104.059-.141A.197.197 0 0 1 9.2 27h1.6c.053 0 .104.021.141.059A.197.197 0 0 1 11 27.2zM13 35.2c0-.583-.232-1.143-.644-1.556A2.205 2.205 0 0 0 10.8 33H9.2c-.583 0-1.143.232-1.556.644A2.205 2.205 0 0 0 7 35.2v1.6c0 .583.232 1.143.644 1.556.413.412.973.644 1.556.644h1.6c.583 0 1.143-.232 1.556-.644.412-.413.644-.973.644-1.556zm-2 0v1.6a.197.197 0 0 1-.059.141.197.197 0 0 1-.141.059H9.2a.197.197 0 0 1-.141-.059A.197.197 0 0 1 9 36.8v-1.6c0-.053.021-.104.059-.141A.197.197 0 0 1 9.2 35h1.6c.053 0 .104.021.141.059A.197.197 0 0 1 11 35.2zM21 19.2c0-.583-.232-1.143-.644-1.556A2.205 2.205 0 0 0 18.8 17h-1.6c-.583 0-1.143.232-1.556.644A2.205 2.205 0 0 0 15 19.2v1.6c0 .583.232 1.143.644 1.556.413.412.973.644 1.556.644h1.6c.583 0 1.143-.232 1.556-.644.412-.413.644-.973.644-1.556zm-2 0v1.6a.197.197 0 0 1-.059.141.197.197 0 0 1-.141.059h-1.6a.197.197 0 0 1-.141-.059A.197.197 0 0 1 17 20.8v-1.6c0-.053.021-.104.059-.141A.197.197 0 0 1 17.2 19h1.6c.053 0 .104.021.141.059A.197.197 0 0 1 19 19.2zM21 27.2c0-.583-.232-1.143-.644-1.556A2.205 2.205 0 0 0 18.8 25h-1.6c-.583 0-1.143.232-1.556.644A2.205 2.205 0 0 0 15 27.2v1.6c0 .583.232 1.143.644 1.556.413.412.973.644 1.556.644h1.6c.583 0 1.143-.232 1.556-.644.412-.413.644-.973.644-1.556zm-2 0v1.6a.197.197 0 0 1-.059.141.197.197 0 0 1-.141.059h-1.6a.197.197 0 0 1-.141-.059A.197.197 0 0 1 17 28.8v-1.6c0-.053.021-.104.059-.141A.197.197 0 0 1 17.2 27h1.6c.053 0 .104.021.141.059A.197.197 0 0 1 19 27.2zM21 35.2c0-.583-.232-1.143-.644-1.556A2.205 2.205 0 0 0 18.8 33h-1.6c-.583 0-1.143.232-1.556.644A2.205 2.205 0 0 0 15 35.2v1.6c0 .583.232 1.143.644 1.556.413.412.973.644 1.556.644h1.6c.583 0 1.143-.232 1.556-.644.412-.413.644-.973.644-1.556zm-2 0v1.6a.197.197 0 0 1-.059.141.197.197 0 0 1-.141.059h-1.6a.197.197 0 0 1-.141-.059A.197.197 0 0 1 17 36.8v-1.6c0-.053.021-.104.059-.141A.197.197 0 0 1 17.2 35h1.6c.053 0 .104.021.141.059A.197.197 0 0 1 19 35.2zM29 19.2c0-.583-.232-1.143-.644-1.556A2.205 2.205 0 0 0 26.8 17h-1.6c-.583 0-1.143.232-1.556.644A2.205 2.205 0 0 0 23 19.2v1.6c0 .583.232 1.143.644 1.556.413.412.973.644 1.556.644h1.6c.583 0 1.143-.232 1.556-.644.412-.413.644-.973.644-1.556zm-2 0v1.6a.197.197 0 0 1-.059.141.197.197 0 0 1-.141.059h-1.6a.197.197 0 0 1-.141-.059A.197.197 0 0 1 25 20.8v-1.6c0-.053.021-.104.059-.141A.197.197 0 0 1 25.2 19h1.6c.053 0 .104.021.141.059A.197.197 0 0 1 27 19.2zM37 19.2c0-.583-.232-1.143-.644-1.556A2.205 2.205 0 0 0 34.8 17h-1.6c-.583 0-1.143.232-1.556.644A2.205 2.205 0 0 0 31 19.2v1.6c0 .583.232 1.143.644 1.556.413.412.973.644 1.556.644h1.6c.583 0 1.143-.232 1.556-.644.412-.413.644-.973.644-1.556zm-2 0v1.6a.197.197 0 0 1-.059.141.197.197 0 0 1-.141.059h-1.6a.197.197 0 0 1-.141-.059A.197.197 0 0 1 33 20.8v-1.6c0-.053.021-.104.059-.141A.197.197 0 0 1 33.2 19h1.6c.053 0 .104.021.141.059A.197.197 0 0 1 35 19.2z" fill="#000000" opacity="1" data-original="#000000" class=""></path><path d="M27.517 43H6a5.004 5.004 0 0 1-3.536-1.464A5.004 5.004 0 0 1 1 38V10a5 5 0 0 1 5-5h3V4a3 3 0 1 1 6 0v1h14V4a3 3 0 1 1 6 0v1h3a5 5 0 0 1 5 5v17.517c2.443 2.019 4 5.07 4 8.483 0 6.071-4.929 11-11 11a10.979 10.979 0 0 1-8.483-4zM36 27c4.967 0 9 4.033 9 9s-4.033 9-9 9-9-4.033-9-9 4.033-9 9-9zm5-.799V15H3v23c0 .796.316 1.559.879 2.121A2.996 2.996 0 0 0 6 41h20.201C25.433 39.5 25 37.8 25 36c0-6.071 4.929-11 11-11 1.8 0 3.5.433 5 1.201zM35 7v1a3 3 0 1 1-6 0V7H15v1a3 3 0 1 1-6 0V7H6a3 3 0 0 0-3 3v3h38v-3a3 3 0 0 0-3-3zm-2-3v4a1 1 0 0 1-2 0V4a1 1 0 0 1 2 0zM13 4v4a1 1 0 0 1-2 0V4a1 1 0 0 1 2 0z" fill="#000000" opacity="1" data-original="#000000" class=""></path></g></svg>