<svg xmlns="http://www.w3.org/2000/svg" version="1.1" xmlns:xlink="http://www.w3.org/1999/xlink" width="512" height="512" x="0" y="0" viewBox="0 0 500 500" style="enable-background:new 0 0 512 512" xml:space="preserve" class=""><g><path d="M209.675 106.419a63.507 63.507 0 0 0 .749-24.461.955.955 0 0 1 .945-1.113h52.616c.617 0 1.07.567.934 1.169a55.253 55.253 0 0 0 0 24.408.955.955 0 0 1-.934 1.169h-53.376a.956.956 0 0 1-.934-1.172zM114.58 233.215c-8.376 10.309-13.847 17.9-25.982 24.483a.954.954 0 0 0-.264 1.473l77.384 88.422a.954.954 0 0 0 1.459-.021c8.433-10.22 18.791-16.918 30.045-19.492a.956.956 0 0 0 .507-1.564l-81.685-93.328a.955.955 0 0 0-1.464.027zm204.764-97.589c22.822 0 41.409-18.575 41.409-41.409 0-22.833-18.587-41.409-41.409-41.409-22.839 0-41.42 18.575-41.42 41.409s18.581 41.409 41.42 41.409zm-161.584-32.95c4.674-5.724 3.831-14.141-1.896-18.817-9.147-7.469-22.967-.203-21.762 11.702 1.202 11.855 16.167 16.306 23.658 7.115zm5.285 293.115a.955.955 0 0 0 .954 1.049h87.591a.955.955 0 0 0 .954-1.048c-2.912-30.728-21.865-54.534-44.744-54.534-22.885-.001-41.832 23.805-44.755 54.533zm142.782 15.418H109.772c-12.532 0-22.724 10.192-22.724 22.718v21.76c0 .528.43.958.958.958h239.582a.96.96 0 0 0 .958-.958v-21.76c-.001-12.526-10.187-22.718-22.719-22.718zM67.28 192.332c-5.694-4.648-14.128-3.845-18.817 1.901-4.667 5.71-3.814 14.15 1.901 18.817 5.71 4.667 14.15 3.814 18.817-1.901 4.661-5.71 3.809-14.156-1.901-18.817zm422.446 143.51-34.143-60.416a7.207 7.207 0 0 0-6.257-3.647H429a.96.96 0 0 1-.958-.958v-70.034c0-.217.062-.402.193-.576 6.128-8.145 5.49-19.878-1.916-27.278l-55.066-55.066a.956.956 0 0 0-1.542.265 56.111 56.111 0 0 1-28.113 27.213.956.956 0 0 0-.294 1.555l55.521 55.515c4.346 4.342 10.142 6.364 15.84 6.068a.954.954 0 0 1 1.007.956v61.382a.96.96 0 0 1-.958.958H392.4a7.168 7.168 0 0 0-6.217 3.59l-34.149 59.114a7.167 7.167 0 0 0-.041 7.127l34.149 60.416c1.975 3.49 6.38 4.659 9.789 2.72a7.18 7.18 0 0 0 2.719-9.789l-31.857-56.368a.934.934 0 0 1 .004-.95l29.473-51.011a.937.937 0 0 1 .829-.479h47.47c.355 0 .659.178.834.486l29.525 52.228a.932.932 0 0 1-.005.95l-31.83 55.085a7.19 7.19 0 0 0 2.627 9.812c3.44 1.987 7.836.812 9.818-2.622l34.149-59.114a7.166 7.166 0 0 0 .039-7.132zM27.289 240.101c-20.88-17.049-23.997-47.908-6.943-68.788l89.846-110.018c17.119-20.968 47.999-23.917 68.782-6.943 20.874 17.049 23.986 47.908 6.949 68.782L96.071 233.159c-17.049 20.874-47.908 23.991-68.782 6.942zM119.797 97c2.472 24.523 33.496 33.868 49.095 14.761 9.686-11.865 7.92-29.341-3.941-39.035-19.088-15.594-47.626-.243-45.154 24.274zm-43.425 84.2c-11.852-9.674-29.361-7.905-39.04 3.941-9.674 11.851-7.905 29.361 3.941 39.035 11.806 9.639 29.326 7.96 39.035-3.935 9.673-11.851 7.91-29.361-3.936-39.041z" fill="#000000" opacity="1" data-original="#000000" class=""></path></g></svg>
