<svg
  width="512"
  height="512"
  viewBox="0 0 512 512"
  fill="none"
  xmlns="http://www.w3.org/2000/svg"
>
  <path
    d="M369.846 0H141.582C132.417 0.0231722 123.635 3.67406 117.154 10.1544C110.674 16.6348 107.023 25.4174 107 34.5819V477.403C107.023 486.569 110.674 495.353 117.154 501.836C123.633 508.319 132.416 511.973 141.582 512H369.846C379.011 511.977 387.793 508.326 394.274 501.846C400.754 495.365 404.405 486.583 404.428 477.418V34.5819C404.405 25.4174 400.754 16.6348 394.274 10.1544C387.793 3.67406 379.011 0.0231722 369.846 0ZM219.201 24.9271H292.227C293.339 24.9271 294.405 25.3686 295.191 26.1546C295.976 26.9406 296.418 28.0066 296.418 29.1182C296.418 30.2297 295.976 31.2957 295.191 32.0817C294.405 32.8677 293.339 33.3093 292.227 33.3093H219.201C218.09 33.3093 217.024 32.8677 216.238 32.0817C215.452 31.2957 215.01 30.2297 215.01 29.1182C215.01 28.0066 215.452 26.9406 216.238 26.1546C217.024 25.3686 218.09 24.9271 219.201 24.9271ZM255.714 494.709C251.128 494.709 246.73 492.887 243.488 489.645C240.245 486.402 238.423 482.004 238.423 477.418C238.423 472.832 240.245 468.434 243.488 465.191C246.73 461.949 251.128 460.127 255.714 460.127C260.3 460.127 264.698 461.949 267.941 465.191C271.183 468.434 273.005 472.832 273.005 477.418C273.005 482.004 271.183 486.402 267.941 489.645C264.698 492.887 260.3 494.709 255.714 494.709ZM380.364 448H131.064V54.8425H380.364V448Z"
    fill="currentColor"
  />
  <path
    d="M242.75 292.625C246.292 295.083 248.604 296.625 249.688 297.25C251.312 298.167 253.5 299.229 256.25 300.438L248.375 316.312C244.417 314.396 240.5 312.104 236.625 309.438C232.75 306.812 230.042 304.833 228.5 303.5C222.25 306.208 214.417 307.562 205 307.562C191.083 307.562 180.104 303.938 172.062 296.688C162.562 288.104 157.812 276.042 157.812 260.5C157.812 245.417 161.958 233.708 170.25 225.375C178.583 217 190.208 212.812 205.125 212.812C220.333 212.812 232.062 216.896 240.312 225.062C248.604 233.229 252.75 244.917 252.75 260.125C252.75 273.667 249.417 284.5 242.75 292.625ZM221.062 278.125C223.312 274.083 224.438 268.042 224.438 260C224.438 250.75 222.708 244.146 219.25 240.188C215.833 236.229 211.104 234.25 205.062 234.25C199.438 234.25 194.875 236.271 191.375 240.312C187.875 244.354 186.125 250.667 186.125 259.25C186.125 269.25 187.833 276.271 191.25 280.312C194.667 284.354 199.354 286.375 205.312 286.375C207.229 286.375 209.042 286.188 210.75 285.812C208.375 283.521 204.625 281.354 199.5 279.312L203.938 269.125C206.438 269.583 208.375 270.146 209.75 270.812C211.167 271.479 213.896 273.229 217.938 276.062C218.896 276.729 219.938 277.417 221.062 278.125ZM324.375 290.875H292.125L287.688 306H258.75L293.188 214.375H324.062L358.5 306H328.875L324.375 290.875ZM318.438 271.062L308.312 238.125L298.25 271.062H318.438Z"
    fill="currentColor"
  />
</svg>
