<svg
  width="512"
  height="512"
  viewBox="0 0 512 512"
  fill="none"
  xmlns="http://www.w3.org/2000/svg"
>
  <g clip-path="url(#clip0_117_21)">
    <path
      d="M436.117 469.542C431.725 420.803 409.388 375.658 373.22 342.423C349.433 320.567 320.996 305.133 290.342 297.059C317.45 280.201 335.536 250.146 335.536 215.942C335.536 211.627 335.239 207.313 334.664 203.049C336.557 202.367 338.468 201.672 340.415 200.951C342.566 200.156 344.422 198.72 345.732 196.838C347.043 194.956 347.745 192.717 347.745 190.424V178.417C347.745 174.836 346.061 171.653 343.45 169.598V169.067C343.45 145.472 335.21 122.355 320.248 103.977C307.352 88.1355 290.001 76.4081 270.732 70.3679C270.331 68.2188 269.31 66.2336 267.796 64.6564C266.282 63.0792 264.341 61.9787 262.21 61.49C247.644 58.17 232.517 58.17 217.951 61.49C215.82 61.9785 213.878 63.0789 212.364 64.6562C210.85 66.2334 209.83 68.2187 209.429 70.3679C190.161 76.4081 172.81 88.1346 159.914 103.977C144.953 122.356 136.713 145.472 136.713 169.067V169.598C134.1 171.653 132.417 174.836 132.417 178.417V190.424C132.417 192.717 133.12 194.956 134.43 196.838C135.741 198.72 137.596 200.155 139.747 200.951C141.695 201.672 143.605 202.367 145.498 203.049C144.919 207.323 144.627 211.63 144.625 215.943C144.625 250.147 162.712 280.202 189.82 297.059C159.166 305.134 130.729 320.568 106.943 342.424C70.7748 375.659 48.4372 420.803 44.0458 469.543C44.0153 469.878 44 470.214 44 470.551V501.269C44 507.468 49.0263 512.494 55.2254 512.494H424.938C431.137 512.494 436.163 507.468 436.163 501.269V470.551C436.163 470.215 436.148 469.878 436.118 469.543L436.117 469.542ZM130.325 351.452C141.619 342.353 154.012 334.709 167.213 328.702V380.62C167.213 391.465 176.036 400.288 186.882 400.288H293.278C304.122 400.288 312.946 391.465 312.946 380.62V328.702C326.148 334.709 338.542 342.353 349.836 351.454V490.043H130.324V351.453L130.325 351.452ZM189.664 320.304C205.627 315.561 222.549 313.014 240.079 313.014C257.61 313.014 274.532 315.561 290.496 320.304V377.836H189.665V320.304H189.664ZM208.397 94.6713L206.784 138.149C206.554 144.344 211.39 149.553 217.585 149.783C223.788 150.023 228.989 145.177 229.219 138.982L231.334 81.9408C237.145 81.2745 243.013 81.2745 248.824 81.9408L250.941 138.982C251.166 145.035 256.144 149.791 262.15 149.791C262.291 149.791 262.432 149.788 262.575 149.783C268.77 149.553 273.606 144.344 273.376 138.149L271.762 94.6713C300.427 107.008 320.204 135.39 320.956 167.193H159.202C159.954 135.391 179.731 107.008 208.396 94.6722L208.397 94.6713ZM304.089 189.642C279.081 197.326 259.378 200.688 240.08 200.837C220.783 200.688 201.079 197.326 176.071 189.642H304.09H304.089ZM167.074 215.942C167.074 214.099 167.167 212.259 167.304 210.426C195.567 219.276 217.829 223.127 239.999 223.288H240.162C262.331 223.127 284.594 219.276 312.856 210.426C312.993 212.26 313.086 214.099 313.086 215.942C313.086 256.197 280.335 288.948 240.08 288.948C199.825 288.948 167.074 256.197 167.074 215.942ZM66.449 471.064C69.9423 433.45 84.9672 399.713 107.874 373.16V490.043H66.449V471.064ZM413.711 490.043H372.286V373.162C395.193 399.715 410.217 433.451 413.711 471.064V490.044V490.043Z"
      fill="currentColor"
    />
    <path
      d="M447.277 28.1547L407.904 19.3801C405.493 18.8733 403.003 18.8733 400.592 19.3801L361.219 28.1547C357.469 28.9869 354.115 31.0738 351.712 34.0704C349.308 37.0669 347.999 40.7938 348.001 44.6351V67.5277C347.93 83.4925 352.689 99.1054 361.654 112.316C370.618 125.527 383.368 135.717 398.23 141.549C400.139 142.333 402.184 142.735 404.248 142.73C406.306 142.725 408.346 142.344 410.266 141.605C425.123 135.75 437.867 125.546 446.829 112.329C455.791 99.1117 460.554 83.4968 460.495 67.5277V44.6351C460.497 40.7938 459.188 37.0669 456.784 34.0704C454.381 31.0738 451.027 28.9869 447.277 28.1547ZM430.965 68.2589L403.911 94.8639C402.857 95.9115 401.431 96.4995 399.945 96.4995C398.459 96.4995 397.034 95.9115 395.98 94.8639L383.155 82.2645C382.628 81.7416 382.21 81.1195 381.924 80.4341C381.639 79.7487 381.492 79.0135 381.492 78.271C381.492 77.5284 381.639 76.7932 381.924 76.1078C382.21 75.4224 382.628 74.8003 383.155 74.2774C384.209 73.2298 385.635 72.6418 387.121 72.6418C388.607 72.6418 390.032 73.2298 391.086 74.2774L399.973 82.9957L423.091 60.4968C423.619 59.9761 424.245 59.5645 424.932 59.2855C425.619 59.0065 426.354 58.8655 427.096 58.8708C427.838 58.876 428.571 59.0272 429.254 59.3159C429.938 59.6045 430.557 60.0249 431.078 60.5531C431.599 61.0812 432.01 61.7067 432.289 62.3939C432.568 63.0812 432.709 63.8166 432.704 64.5583C432.699 65.2999 432.548 66.0333 432.259 66.7165C431.97 67.3998 431.55 68.0194 431.022 68.5402L430.965 68.2589Z"
      fill="currentColor"
    />
  </g>
  <defs>
    <clipPath id="clip0_117_21">
      <rect width="512" height="512" fill="white" />
    </clipPath>
  </defs>
</svg>
