<svg xmlns="http://www.w3.org/2000/svg" version="1.1" xmlns:xlink="http://www.w3.org/1999/xlink" width="512" height="512" x="0" y="0" viewBox="0 0 512 512" style="enable-background:new 0 0 512 512" xml:space="preserve" class=""><g><g fill="#d8e8f0"><path d="M152.819 160.315a7.48 7.48 0 0 1-5.304-2.196L80.042 90.644a7.502 7.502 0 0 1-2.196-5.304V21.333c0-4.143 3.357-7.5 7.5-7.5s7.5 3.357 7.5 7.5v60.9l65.277 65.277a7.5 7.5 0 0 1-5.304 12.805zM356.226 163.279a7.5 7.5 0 0 1-5.304-12.803l68.243-68.241v-60.9c0-4.143 3.357-7.5 7.5-7.5s7.5 3.357 7.5 7.5V85.34c0 1.989-.79 3.896-2.196 5.304l-70.439 70.438a7.482 7.482 0 0 1-5.304 2.197zM256 124.602a7.499 7.499 0 0 1-7.5-7.5V28.446c0-4.143 3.357-7.5 7.5-7.5s7.5 3.357 7.5 7.5v88.656c0 4.143-3.357 7.5-7.5 7.5zM85.346 498.166a7.499 7.499 0 0 1-7.5-7.5V426.66c0-1.989.79-3.896 2.196-5.304l64.119-64.12a7.5 7.5 0 0 1 10.607 10.607l-61.923 61.923v60.9a7.498 7.498 0 0 1-7.499 7.5zM426.665 501.71a7.499 7.499 0 0 1-7.5-7.5v-64.444l-64.396-64.396a7.5 7.5 0 0 1 10.607-10.607l66.593 66.593a7.502 7.502 0 0 1 2.196 5.304v67.551a7.499 7.499 0 0 1-7.5 7.499zM256 504.562a7.499 7.499 0 0 1-7.5-7.5v-94.615c0-4.143 3.357-7.5 7.5-7.5s7.5 3.357 7.5 7.5v94.615c0 4.143-3.357 7.5-7.5 7.5zM94.283 263.5H16.344c-4.143 0-7.5-3.357-7.5-7.5s3.357-7.5 7.5-7.5h77.939c4.143 0 7.5 3.357 7.5 7.5s-3.357 7.5-7.5 7.5zM488.264 263.5h-71.762c-4.143 0-7.5-3.357-7.5-7.5s3.357-7.5 7.5-7.5h71.762c4.143 0 7.5 3.357 7.5 7.5s-3.358 7.5-7.5 7.5z" fill="#d8e8f0" opacity="1" data-original="#d8e8f0"></path></g><path fill="#0681af" d="m423.805 217.596-42.122-7.02c-.601-.1-1.1-.515-1.314-1.087a131.467 131.467 0 0 0-3.54-8.536 1.702 1.702 0 0 1 .161-1.698l24.823-34.752a3.432 3.432 0 0 0-.366-4.421l-49.525-49.525a3.432 3.432 0 0 0-4.421-.366l-34.752 24.823a1.702 1.702 0 0 1-1.698.161 132.03 132.03 0 0 0-8.536-3.54 1.705 1.705 0 0 1-1.087-1.314l-7.02-42.121a3.43 3.43 0 0 0-3.385-2.867h-70.038A3.432 3.432 0 0 0 217.6 88.2l-7.02 42.122c-.1.601-.515 1.1-1.087 1.314a131.467 131.467 0 0 0-8.536 3.54 1.702 1.702 0 0 1-1.698-.161l-34.752-24.823a3.432 3.432 0 0 0-4.421.366l-49.525 49.525a3.432 3.432 0 0 0-.366 4.421l24.823 34.752c.355.497.414 1.143.161 1.698a132.03 132.03 0 0 0-3.54 8.536 1.705 1.705 0 0 1-1.314 1.087l-42.122 7.02a3.43 3.43 0 0 0-2.867 3.385v70.038a3.432 3.432 0 0 0 2.867 3.385l42.122 7.02c.601.1 1.1.515 1.314 1.087a131.467 131.467 0 0 0 3.54 8.536 1.702 1.702 0 0 1-.161 1.698l-24.823 34.752a3.432 3.432 0 0 0 .366 4.421l49.525 49.525a3.432 3.432 0 0 0 4.421.366l34.752-24.823a1.702 1.702 0 0 1 1.698-.161 132.03 132.03 0 0 0 8.536 3.54c.571.214.986.712 1.087 1.314l7.02 42.122a3.43 3.43 0 0 0 3.385 2.867h70.038a3.432 3.432 0 0 0 3.385-2.867l7.02-42.122c.1-.601.515-1.1 1.087-1.314a131.467 131.467 0 0 0 8.536-3.54 1.702 1.702 0 0 1 1.698.161l34.752 24.823a3.432 3.432 0 0 0 4.421-.366l49.525-49.525a3.432 3.432 0 0 0 .366-4.421l-24.823-34.752a1.702 1.702 0 0 1-.161-1.698 132.03 132.03 0 0 0 3.54-8.536 1.705 1.705 0 0 1 1.314-1.087l42.122-7.02a3.43 3.43 0 0 0 2.867-3.385v-70.038a3.432 3.432 0 0 0-2.867-3.386z" opacity="1" data-original="#0681af"></path><path fill="#017297" d="M355.306 134.546a11.665 11.665 0 0 1 1.244 15.028l-18.053 25.274c-2.017 2.825-2.383 6.483-1.052 9.689l.043.104c1.327 3.204 4.171 5.528 7.591 6.098l30.637 5.106c1.073.179 2.091.501 3.036.944l23.061-32.286a3.432 3.432 0 0 0-.366-4.421l-49.525-49.525a3.432 3.432 0 0 0-4.421-.366l-9.654 6.896zM423.805 217.596l-38.342-6.39v52.234a11.665 11.665 0 0 1-9.747 11.506l-30.637 5.106c-3.421.57-6.264 2.894-7.591 6.098a4.568 4.568 0 0 1-.043.104c-1.331 3.206-.965 6.864 1.052 9.689l18.053 25.274a11.665 11.665 0 0 1-1.244 15.029l-39.661 39.66a11.669 11.669 0 0 1-2.087 1.658l33.943 24.245a3.432 3.432 0 0 0 4.421-.366l49.525-49.525a3.432 3.432 0 0 0 .366-4.421l-24.823-34.752a1.7 1.7 0 0 1-.16-1.698 132.03 132.03 0 0 0 3.54-8.536 1.702 1.702 0 0 1 1.314-1.086l42.122-7.02a3.432 3.432 0 0 0 2.867-3.385v-70.038a3.434 3.434 0 0 0-2.868-3.386zM300.617 377.149l-25.274-18.053c-2.825-2.018-6.483-2.383-9.689-1.052l-.104.043c-3.204 1.327-5.528 4.171-6.098 7.591l-5.106 30.637a11.665 11.665 0 0 1-11.506 9.747h-28.195l2.956 17.737a3.432 3.432 0 0 0 3.385 2.867h70.038a3.432 3.432 0 0 0 3.385-2.867l7.02-42.122c.1-.602.515-1.1 1.087-1.314a129.26 129.26 0 0 0 3.052-1.186 11.604 11.604 0 0 1-4.951-2.028z" opacity="1" data-original="#017297"></path><circle cx="85.339" cy="21.333" r="21.333" fill="#01c0fa" opacity="1" data-original="#01c0fa"></circle><circle cx="256" cy="21.333" r="21.333" fill="#fed402" opacity="1" data-original="#fed402"></circle><circle cx="426.672" cy="21.333" r="21.333" fill="#fe0364" opacity="1" data-original="#fe0364"></circle><circle cx="85.339" cy="490.667" r="21.333" fill="#fd6930" opacity="1" data-original="#fd6930" class=""></circle><circle cx="256" cy="490.667" r="21.333" fill="#01c0fa" opacity="1" data-original="#01c0fa"></circle><circle cx="426.672" cy="490.667" r="21.333" fill="#af66da" opacity="1" data-original="#af66da" class=""></circle><circle cx="21.333" cy="256" r="21.333" fill="#0ed2b3" opacity="1" data-original="#0ed2b3"></circle><circle cx="490.667" cy="256" r="21.333" fill="#fed402" opacity="1" data-original="#fed402"></circle><path fill="#017297" d="M326.399 193.107a7.48 7.48 0 0 1-5.304-2.196c-17.386-17.387-40.502-26.962-65.09-26.962s-47.704 9.575-65.09 26.962a7.5 7.5 0 0 1-10.607-10.607c20.22-20.22 47.104-31.354 75.697-31.354 28.595 0 55.478 11.135 75.697 31.354a7.5 7.5 0 0 1-5.303 12.803zM256.005 363.001c-27.413 0-54.827-10.435-75.697-31.304a7.5 7.5 0 0 1 10.607-10.607c35.892 35.892 94.292 35.89 130.18 0a7.5 7.5 0 0 1 10.607 10.607c-20.87 20.87-48.283 31.304-75.697 31.304z" opacity="1" data-original="#017297"></path><path fill="#025f80" d="m277.72 360.794-2.377-1.698c-2.824-2.018-6.483-2.383-9.688-1.052l-.104.043a10.119 10.119 0 0 0-5.202 4.827 107.81 107.81 0 0 0 17.371-2.12z" opacity="1" data-original="#025f80"></path><g fill="#f2fbff"><path d="M206.225 233.541c4.143 0 7.5-3.357 7.5-7.5s-3.357-7.5-7.5-7.5h-35.951a7.499 7.499 0 0 0-7.5 7.5v59.917c0 4.143 3.357 7.5 7.5 7.5h35.951c4.143 0 7.5-3.357 7.5-7.5s-3.357-7.5-7.5-7.5h-28.451V263.5h28.451c4.143 0 7.5-3.357 7.5-7.5s-3.357-7.5-7.5-7.5h-28.451v-14.959zM257.854 218.541h-20.972a7.499 7.499 0 0 0-7.5 7.5v59.917c0 4.143 3.357 7.5 7.5 7.5s7.5-3.357 7.5-7.5V263.5h13.472c4.124 0 7.479 3.354 7.479 7.479v14.979c0 4.143 3.357 7.5 7.5 7.5s7.5-3.357 7.5-7.5v-14.979c0-5.748-2.169-11-5.732-14.979a22.389 22.389 0 0 0 5.732-14.979c0-12.396-10.084-22.48-22.479-22.48zm-13.472 15h13.472c4.124 0 7.479 3.355 7.479 7.479s-3.355 7.479-7.479 7.479h-13.472zM326.747 218.541h-20.972a7.499 7.499 0 0 0-7.5 7.5v59.917c0 4.143 3.357 7.5 7.5 7.5s7.5-3.357 7.5-7.5V263.5h13.472c12.396 0 22.479-10.084 22.479-22.48s-10.083-22.479-22.479-22.479zm0 29.959h-13.472v-14.959h13.472c4.124 0 7.479 3.355 7.479 7.479s-3.355 7.48-7.479 7.48z" fill="#f2fbff" opacity="1" data-original="#f2fbff"></path></g></g></svg>
