<svg
  xmlns="http://www.w3.org/2000/svg"
  version="1.1"
  xmlns:xlink="http://www.w3.org/1999/xlink"
  width="512"
  height="512"
  x="0"
  y="0"
  viewBox="0 0 511.999 511"
  style="enable-background: new 0 0 512 512"
  xml:space="preserve"
  class=""
>
  <g>
    <path
      d="M471.914 393.54v-14.36a7.5 7.5 0 1 0-15 0v11.91c-.52-.016-1.039-.024-1.562-.024H290.914v-54.949h166v12.895a7.5 7.5 0 1 0 15 0v-14.356c0-7.465-6.07-13.539-13.539-13.539h-65.953v-14.824c0-31.59-18.496-52.39-56.543-63.59a6.785 6.785 0 0 0-.688-.168l-74.257-14.441V212.43a90.354 90.354 0 0 0 7.582-5.864c13.324-11.472 21.828-27.902 23.937-45.879 9.985-1.128 17.77-9.62 17.77-19.902v-13.234c6.488-3.04 10.988-9.63 10.988-17.254 0-9.086-6.398-16.707-14.926-18.594v-4.758C306.285 39.277 267.504.5 219.84.5h-7.176c-27.902 0-54.234 13.582-70.445 36.332a7.5 7.5 0 0 0 1.758 10.461 7.492 7.492 0 0 0 10.457-1.758 71.524 71.524 0 0 1 22.023-20.156v14.195a7.5 7.5 0 0 0 7.5 7.5c4.145 0 7.5-3.355 7.5-7.5v-20.84a71.088 71.088 0 0 1 17.766-3.152v41.906a7.5 7.5 0 1 0 15 0V15.633a70.897 70.897 0 0 1 16.824 3.078v20.863c0 4.145 3.355 7.5 7.5 7.5a7.5 7.5 0 0 0 7.5-7.5V25.367c21.07 12.438 35.238 35.383 35.238 61.574v4.313H141.22V86.94c0-5.644.66-11.257 1.96-16.691a7.505 7.505 0 0 0-5.55-9.04c-4.035-.968-8.074 1.524-9.04 5.552a86.754 86.754 0 0 0-2.37 20.18v4.761c-8.528 1.887-14.926 9.508-14.926 18.594 0 7.621 4.504 14.215 10.988 17.254v13.234c0 10.277 7.785 18.774 17.77 19.899 2.11 17.98 10.617 34.41 23.937 45.882a89.486 89.486 0 0 0 7.582 5.86v15.668L97.313 242.53a8.02 8.02 0 0 0-.688.168c-38.047 11.203-56.543 32.004-56.543 63.594v87.242C16.902 400.637 0 422.238 0 447.715c0 31.234 25.41 56.648 56.648 56.648h398.704c31.234 0 56.648-25.414 56.648-56.648 0-25.477-16.902-47.078-40.086-54.176zM336.86 258.733c27.996 9.43 40.563 24.254 40.563 47.559v14.824h-40.563zM126.293 110.297a4.045 4.045 0 0 1 4.039-4.043h171.84c2.23 0 4.043 1.816 4.043 4.043s-1.817 4.039-4.043 4.039h-171.84a4.042 4.042 0 0 1-4.039-4.04zm28.254 42.855a7.502 7.502 0 0 0-7.5-7.34h-4.738a5.034 5.034 0 0 1-5.028-5.027V129.34h157.942v11.445a5.031 5.031 0 0 1-5.028 5.028h-4.738a7.499 7.499 0 0 0-7.496 7.34c-.356 16.503-7.363 31.827-19.23 42.046-12.364 10.645-26.653 16.14-42.477 16.336-15.824-.195-30.113-5.691-42.477-16.336-11.867-10.219-18.879-25.543-19.23-42.047zm91.387 67.457v13.668c0 16.364-13.317 29.68-29.68 29.68-16.367 0-29.684-13.312-29.684-29.68V220.61c9.262 3.82 19.153 5.809 29.598 5.926h.168c10.445-.117 20.336-2.101 29.598-5.926zm-98.903 27.54 25.438-4.95c4.144 20.38 22.203 35.758 43.785 35.758 21.582 0 39.637-15.379 43.785-35.758l25.434 4.95v42.347c0 4.102-3.34 7.438-7.442 7.438H154.477c-4.106 0-7.442-3.336-7.442-7.438v-42.348zm-36.386 7.074 21.39-4.16v39.433c0 12.375 10.067 22.438 22.442 22.438H278.03c12.371 0 22.442-10.063 22.442-22.438v-39.434l21.386 4.16v65.895h-32.402c-7.469 0-13.543 6.074-13.543 13.54v56.41h-165.27zm-55.56 51.07c0-23.305 12.563-38.129 40.56-47.559v62.383h-40.56zm0 29.824h40.56v54.95H56.648c-.523 0-1.046.007-1.562.023zm400.267 153.246H56.648C33.684 489.363 15 470.68 15 447.715s18.684-41.649 41.648-41.649h398.704c22.964 0 41.648 18.684 41.648 41.649s-18.684 41.648-41.648 41.648zm0 0"
      fill="currentColor"
      opacity="1"
      data-original="currentColor"
      class=""
    ></path>
    <path
      d="M455.352 419.105H56.648c-15.777 0-28.613 12.836-28.613 28.61 0 15.777 12.836 28.61 28.613 28.61h398.704c15.777 0 28.609-12.833 28.609-28.61.004-15.774-12.832-28.61-28.61-28.61zM56.648 461.328c-6.742 0-12.355-4.93-13.425-11.375a2.154 2.154 0 0 1-.028-.168 4.634 4.634 0 0 1-.047-.336l-.023-.172a13.218 13.218 0 0 1-.059-.687 12.887 12.887 0 0 1 0-1.746c.012-.23.036-.461.059-.688l.023-.172c.012-.113.028-.226.047-.336.008-.058.016-.113.028-.171 1.07-6.442 6.683-11.372 13.425-11.372 7.504 0 13.61 6.106 13.61 13.61s-6.106 13.61-13.61 13.613zm100.438 0H81.809c2.199-4.05 3.449-8.687 3.449-13.613 0-4.922-1.25-9.559-3.45-13.61h75.278c-2.2 4.051-3.45 8.688-3.45 13.61s1.25 9.562 3.45 13.613zm25.16 0c-7.508 0-13.61-6.105-13.61-13.613 0-7.504 6.102-13.61 13.61-13.61 7.504 0 13.61 6.106 13.61 13.61 0 7.508-6.106 13.613-13.61 13.613zm122.348 0h-97.188c2.2-4.05 3.45-8.687 3.45-13.613 0-4.922-1.25-9.559-3.45-13.61h97.188c-2.2 4.051-3.45 8.688-3.45 13.61s1.25 9.562 3.45 13.613zm25.16 0c-7.504 0-13.61-6.105-13.61-13.613 0-7.504 6.106-13.61 13.61-13.61 7.508 0 13.61 6.106 13.61 13.61 0 7.508-6.102 13.613-13.61 13.613zm25.16 0c2.2-4.05 3.45-8.687 3.45-13.613 0-4.922-1.25-9.559-3.45-13.61h75.277a28.442 28.442 0 0 0-3.449 13.61c0 4.926 1.25 9.562 3.45 13.613zm100.438 0c-7.504 0-13.61-6.11-13.61-13.613s6.106-13.61 13.61-13.61c7.503 0 13.613 6.106 13.613 13.61 0 7.508-6.11 13.613-13.613 13.613zm0 0"
      fill="currentColor"
      opacity="1"
      data-original="currentColor"
      class=""
    ></path>
  </g>
</svg>
