<svg xmlns="http://www.w3.org/2000/svg" version="1.1" xmlns:xlink="http://www.w3.org/1999/xlink" width="512" height="512" x="0" y="0" viewBox="0 0 100 100" style="enable-background:new 0 0 512 512" xml:space="preserve" class=""><g><path d="M65.529 38.371v-1.136H60.5v4.211a20.225 20.225 0 0 1 5.029-3.075zM75.946 10h-54.76v5.125h54.76zM85.02 44.563a17.027 17.027 0 0 0-5.458-3.657 16.978 16.978 0 0 0-6.455-1.275 16.752 16.752 0 0 0-11.913 4.932 16.767 16.767 0 0 0-4.945 11.927c0 .457.014.928.042 1.385v.056C56.94 76.064 69.768 87.368 73.106 90c3.422-2.701 16.845-14.532 16.845-33.51a16.75 16.75 0 0 0-4.931-11.927zM73.106 65.037c-4.71 0-8.547-3.837-8.547-8.547 0-4.724 3.837-8.547 8.547-8.547s8.547 3.823 8.547 8.547c.001 4.71-3.837 8.547-8.547 8.547zM49.958 59.288v21.707h11.124c-3.657-5.458-6.926-12.731-7.494-21.707zM34.554 59.288h12.634v21.707H34.554z" fill="#000000" opacity="1" data-original="#000000"></path><path d="M53.477 56.49c0-4.544 1.538-8.852 4.364-12.329a1.314 1.314 0 0 1-.111-.513v-7.799a1.38 1.38 0 0 1 1.385-1.385h7.799c.776 0 1.385.61 1.385 1.385v1.621a20.224 20.224 0 0 1 3.422-.54V17.896H25.425v63.1h6.358V57.903c0-.762.623-1.385 1.385-1.385h20.308l.001-.028zm4.253-34.438a1.38 1.38 0 0 1 1.385-1.385h7.799c.776 0 1.385.61 1.385 1.385v7.799a1.38 1.38 0 0 1-1.385 1.385h-7.799a1.389 1.389 0 0 1-1.385-1.385zm-14.449 0a1.38 1.38 0 0 1 1.385-1.385h7.799c.776 0 1.385.61 1.385 1.385v7.799a1.38 1.38 0 0 1-1.385 1.385h-7.799a1.389 1.389 0 0 1-1.385-1.385zm-3.878 21.596c0 .762-.623 1.385-1.385 1.385h-7.799a1.38 1.38 0 0 1-1.385-1.385v-7.799c0-.776.61-1.385 1.385-1.385h7.799c.762 0 1.385.61 1.385 1.385zm0-13.797c0 .762-.623 1.385-1.385 1.385h-7.799a1.38 1.38 0 0 1-1.385-1.385v-7.799c0-.776.61-1.385 1.385-1.385h7.799c.762 0 1.385.61 1.385 1.385zm13.063 15.183h-7.799a1.389 1.389 0 0 1-1.385-1.385V35.85a1.38 1.38 0 0 1 1.385-1.385h7.799c.776 0 1.385.61 1.385 1.385v7.799a1.38 1.38 0 0 1-1.385 1.385zM10.048 80.996h12.607V38.121L10.048 44.66z" fill="#000000" opacity="1" data-original="#000000"></path><path d="M31.603 23.437h5.029v5.029h-5.029zM46.052 23.437h5.029v5.029h-5.029zM60.5 23.437h5.029v5.029H60.5zM31.603 37.235h5.029v5.029h-5.029zM46.052 37.235h5.029v5.029h-5.029z" fill="#000000" opacity="1" data-original="#000000"></path></g></svg>