<svg
  xmlns="http://www.w3.org/2000/svg"
  version="1.1"
  xmlns:xlink="http://www.w3.org/1999/xlink"
  width="512"
  height="512"
  x="0"
  y="0"
  viewBox="0 0 512 512"
  style="enable-background: new 0 0 512 512"
  xml:space="preserve"
  class=""
>
  <g>
    <path
      d="m506.31 356.169-30.077-.054a71.446 71.446 0 0 0-9.11-22.046l21.183-21.237a4.686 4.686 0 0 0 .055-6.63L470.9 288.737a4.639 4.639 0 0 0-6.63.054l-21.237 21.184a71.4 71.4 0 0 0-22.1-9.11v-30.023a4.7 4.7 0 0 0-4.689-4.744h-24.638a4.692 4.692 0 0 0-4.689 4.69l-.054 30.023a74.4 74.4 0 0 0-22.047 9.218l-15.847-15.9-5.39-5.39a4.638 4.638 0 0 0-6.63.054l-17.464 17.357a4.8 4.8 0 0 0 0 6.684l2.371 2.317 18.866 18.92a72.641 72.641 0 0 0-9.163 22.1l-24.58-.054h-5.39a4.7 4.7 0 0 0-4.689 4.743l-.054 24.634a4.739 4.739 0 0 0 4.743 4.689h29.97a72.083 72.083 0 0 0 9.163 22.1l-21.183 21.238a4.685 4.685 0 0 0-.054 6.63l17.41 17.464a4.733 4.733 0 0 0 6.63 0l5.444-5.444 15.847-15.794a74 74 0 0 0 22.1 9.164v29.97a4.7 4.7 0 0 0 4.689 4.743h24.633a4.738 4.738 0 0 0 4.689-4.743v-30.026a63.358 63.358 0 0 0 11.752-3.719 67.266 67.266 0 0 0 10.349-5.391l21.237 21.238a4.8 4.8 0 0 0 6.685 0l17.41-17.464a4.686 4.686 0 0 0 0-6.63l-21.238-21.238a73.981 73.981 0 0 0 9.163-22.1h29.97a4.705 4.705 0 0 0 4.745-4.689v-24.634a4.693 4.693 0 0 0-4.69-4.689zm-66.219 29.288c-4.952 13.422-17.41 24.244-31.744 25.9-21.976 2.544-42.883-16.192-42.883-38.212.265-20.884 18.932-39.264 40.048-38.392 19.111.789 36.126 17.877 36.834 36.991a35.812 35.812 0 0 1-2.255 13.713zm-329.818 12.4a10.024 10.024 0 0 1 2.749 6.9v78H57.988v-70.294a460.425 460.425 0 0 0 52.285-14.608zm44.685-18.111a439.345 439.345 0 0 0 55.034-30.671v133.676h-55.034zM301.589 404.2h5.39v22.747a18.03 18.03 0 0 0-2.857 9.864 18.665 18.665 0 0 0 2.857 9.972v35.953h-55.034V318.06a446.63 446.63 0 0 0 55.034-54.495v35.9a18.854 18.854 0 0 0 0 20V342.1h-5.66a18.965 18.965 0 0 0-13.044 5.553 18.335 18.335 0 0 0-5.39 13.151l-.054 24.957a18.669 18.669 0 0 0 18.758 18.439zm67.27-235.122h35.09v83.01h-12.343a18.7 18.7 0 0 0-18.7 18.65l-.054 19.728c-1.832.7-3.665 1.455-5.444 2.318l-13.96-13.961a18.794 18.794 0 0 0-4.475-3.288V205.3c8.027-13.1 14.55-25.392 19.886-36.226zm4.041 306.431a18.789 18.789 0 0 0 1.455 7.223h-25.386v-11.913a16.575 16.575 0 0 0 4.421-3.288l13.96-13.907a99.87 99.87 0 0 0 5.552 2.264zM223.464 289.552q-8.073 6.7-16.453 13.028C146.841 348.013 75.636 378.5 1 389.6c8.345-1.241 17.72-6.9 25.548-10.106q13.371-5.484 26.416-11.717a521.044 521.044 0 0 0 50.665-27.764 528.406 528.406 0 0 0 90.722-71.313A501.182 501.182 0 0 0 309.482 95.612l-26.627-13.53a5.843 5.843 0 0 1 .054-10.457l84.842-41.774a5.879 5.879 0 0 1 8.355 4.258l16.439 93.091a5.822 5.822 0 0 1-8.409 6.2l-32.556-16.5a448.52 448.52 0 0 1-5.552 12.775c-28.019 61.81-70.419 116.598-122.564 159.877z"
      fill="currentColor"
      opacity="1"
      data-original="currentColor"
      class=""
    ></path>
  </g>
</svg>
