<svg
  xmlns="http://www.w3.org/2000/svg"
  version="1.1"
  xmlns:xlink="http://www.w3.org/1999/xlink"
  width="512"
  height="512"
  x="0"
  y="0"
  viewBox="0 0 512 512"
  style="enable-background: new 0 0 512 512"
  xml:space="preserve"
  class=""
>
  <g>
    <path
      d="M351.546 403.461c-30.211-18.494-62.588-36.728-94.016-54.374v-11.03a127.98 127.98 0 0 0 2.738-3.427c10.405-13.545 18.228-29.213 23.162-46.026 17.502-6.277 30.684-24.522 30.684-43.385 0-9.734-3.57-18.328-10.054-24.2a28.573 28.573 0 0 0-10.283-5.965l.003-.006c6.956-17.166 10.909-34.473 10.909-49.613 0-57.857-49.533-104.925-110.414-104.925-60.891 0-110.424 47.068-110.424 104.925 0 15.14 3.972 32.445 10.928 49.62a28.617 28.617 0 0 0-10.509 6.193c-6.326 5.865-9.809 14.378-9.809 23.971 0 18.862 13.18 37.105 30.68 43.383 4.931 16.813 12.75 32.48 23.15 46.025a126.24 126.24 0 0 0 2.918 3.648v10.73c-29.922 16.757-63.406 35.571-94.226 54.464-11.657 7.186-18.344 19.143-18.344 32.796v64.334a6.988 6.988 0 0 0 6.986 6.986h337.291a6.981 6.981 0 0 0 6.986-6.986v-64.334c-.002-13.671-6.689-25.628-18.356-32.804zM289.047 228.2a14.669 14.669 0 0 1 5.631 3.179c3.52 3.189 5.46 8.104 5.46 13.841 0 9.329-5.14 18.91-12.553 25.057a153.706 153.706 0 0 0 1.972-24.548c-.001-4.476-.062-10.839-.51-17.529zM88.434 245.221c0-5.659 1.895-10.532 5.336-13.723a14.638 14.638 0 0 1 5.447-3.194c-.202 6.451-.204 12.111-.203 16.452v.974c0 8.289.669 16.502 1.97 24.547-7.41-6.148-12.55-15.728-12.55-25.056zm24.632 4.311c4.238 6.351 8.854 12.422 13.779 18.075a6.982 6.982 0 0 0 9.322 1.098c16.867-12.017 36.958-18.364 58.106-18.364 21.159 0 41.259 6.347 58.127 18.364a6.94 6.94 0 0 0 4.052 1.298 6.966 6.966 0 0 0 5.27-2.395c4.923-5.651 9.547-11.739 13.784-18.097-.761 28.315-10.024 55.391-26.321 76.607-15.781 20.544-35.796 32.326-54.913 32.326-19.115 0-39.125-11.782-54.898-32.324-16.285-21.211-25.543-48.279-26.308-76.588zm130.491 102.81v.837c0 27.127-22.077 49.194-49.204 49.194-27.107 0-49.164-22.067-49.164-49.194v-.673c15.135 12.84 32.251 19.912 49.082 19.912 16.905 0 34.099-7.131 49.286-20.076zm63.825 141.273H81.165V393.461a3091.483 3091.483 0 0 1 28.374-16.238v78.596a6.987 6.987 0 0 0 6.986 6.986h155.516a6.981 6.981 0 0 0 6.986-6.986v-78.576c9.491 5.38 18.973 10.789 28.354 16.238v100.134zm147.841-308.886a6.998 6.998 0 0 0-6.817.269 6.996 6.996 0 0 0-3.334 5.959v28.374c0 10.28-8.364 18.644-18.643 18.644-10.28 0-18.643-8.364-18.643-18.644v-28.374a7.02 7.02 0 0 0-3.334-5.959 7.015 7.015 0 0 0-6.827-.269c-21.498 10.929-34.852 32.686-34.852 56.789a63.568 63.568 0 0 0 25.291 50.821v180.827c0 21.139 17.206 38.335 38.365 38.335 21.139 0 38.335-17.196 38.335-38.335V292.338a63.54 63.54 0 0 0 25.321-50.821c0-24.102-13.354-45.86-34.862-56.788zm-21.807 233.723c0 3.852-3.124 6.986-6.986 6.986s-6.986-3.134-6.986-6.986v-57.517c0-3.863 3.124-6.997 6.986-6.997s6.986 3.134 6.986 6.997zm56.27-312.03-14.362-11.448c.12-1.866.18-3.743.15-5.649l14.961-10.679a6.994 6.994 0 0 0 2.465-8.194l-9.671-25.21c-1.148-2.964-4.152-4.801-7.306-4.442l-18.284 2.066a74.502 74.502 0 0 0-3.863-4.082l3.024-18.115a6.983 6.983 0 0 0-4.042-7.535L428.057 2.125a6.984 6.984 0 0 0-8.304 2.026l-11.468 14.372a75.3 75.3 0 0 0-5.609-.15l-10.679-14.94a6.966 6.966 0 0 0-8.184-2.465l-25.241 9.671a6.99 6.99 0 0 0-4.441 7.316l2.066 18.264a71.55 71.55 0 0 0-4.082 3.872l-18.124-3.024a6.977 6.977 0 0 0-7.535 4.052l-10.979 24.672a6.99 6.99 0 0 0 2.036 8.304l14.352 11.448a75.673 75.673 0 0 0-.14 5.649l-14.941 10.679a6.99 6.99 0 0 0-2.465 8.194l9.681 25.2a6.978 6.978 0 0 0 7.306 4.441l18.244-2.066a72.332 72.332 0 0 0 3.872 4.102l-3.004 18.115a6.996 6.996 0 0 0 4.052 7.525l24.662 10.999a6.994 6.994 0 0 0 8.314-2.016l11.458-14.382c1.886.13 3.753.18 5.619.15l10.679 14.951a6.975 6.975 0 0 0 5.689 2.924c.828 0 1.677-.15 2.495-.459l25.231-9.681a6.997 6.997 0 0 0 4.451-7.306l-2.066-18.254a74.67 74.67 0 0 0 4.082-3.892l18.115 3.034a6.995 6.995 0 0 0 7.535-4.052l10.979-24.672a6.987 6.987 0 0 0-2.027-8.304zm-51.729-.859c-6.218 13.973-19.991 22.296-34.393 22.296-5.11 0-10.3-1.048-15.26-3.253-18.943-8.434-27.506-30.71-19.073-49.653 8.463-18.933 30.73-27.466 49.653-19.043 9.182 4.082 16.218 11.498 19.821 20.869 3.604 9.382 3.344 19.602-.748 28.784z"
      fill="currentColor"
      opacity="1"
      data-original="currentColor"
      class=""
    ></path>
  </g>
</svg>
