<svg xmlns="http://www.w3.org/2000/svg" version="1.1" xmlns:xlink="http://www.w3.org/1999/xlink" width="512" height="512" x="0" y="0" viewBox="0 0 512 512" style="enable-background:new 0 0 512 512" xml:space="preserve" class=""><g><linearGradient id="a" x1="0" x2="512" y1="-14530" y2="-14530" gradientTransform="matrix(1 0 0 -1 0 -14274)" gradientUnits="userSpaceOnUse"><stop stop-opacity="1" stop-color="#31d8ff" offset="0"></stop><stop stop-opacity="1" stop-color="#010101" offset="0"></stop><stop stop-opacity="1" stop-color="#010101" offset="1"></stop></linearGradient><path fill="url(#a)" d="M512 256c0 141.387-114.613 256-256 256S0 397.387 0 256 114.613 0 256 0s256 114.613 256 256zm0 0" opacity="1" data-original="url(#a)" class=""></path><g fill="#fff"><path d="M256 56C145.719 56 56 145.719 56 256s89.719 200 200 200 200-89.719 200-200S366.281 56 256 56zm0 370c-93.738 0-170-76.262-170-170S162.262 86 256 86s170 76.262 170 170-76.262 170-170 170zm0 0" fill="#ffffff" opacity="1" data-original="#ffffff" class=""></path><path d="M256 287.988c8.285 0 15-6.718 15-15v-100.96c0-8.286-6.715-15-15-15s-15 6.714-15 15v100.96c0 8.282 6.715 15 15 15zM277.164 329.027c0 11.692-9.476 21.164-21.164 21.164s-21.164-9.472-21.164-21.164c0-11.687 9.476-21.164 21.164-21.164s21.164 9.477 21.164 21.164zm0 0" fill="#ffffff" opacity="1" data-original="#ffffff" class=""></path></g></g></svg>