<svg xmlns="http://www.w3.org/2000/svg" version="1.1" xmlns:xlink="http://www.w3.org/1999/xlink" width="512" height="512" x="0" y="0" viewBox="0 0 512 512" style="enable-background:new 0 0 512 512" xml:space="preserve" class=""><g><circle cx="256" cy="256" r="236.17" style="" fill="#000000" data-original="#1138f7" opacity="1" class=""></circle><path d="M256 512C114.853 512 0 397.167 0 256 0 114.853 114.853 0 256 0c141.167 0 256 114.853 256 256 0 141.167-114.833 256-256 256zm0-472.341C136.705 39.659 39.659 136.705 39.659 256S136.705 472.341 256 472.341 472.341 375.275 472.341 256c0-119.295-97.046-216.341-216.341-216.341z" style="" fill="#000000" data-original="#1138f7" opacity="1" class=""></path><path d="M335.299 336.905a19.713 19.713 0 0 1-11.878-3.966l-79.318-59.489c-4.997-3.728-7.932-9.617-7.932-15.864V138.609c0-10.946 8.884-19.83 19.83-19.83 10.946 0 19.83 8.884 19.83 19.83v109.063l71.387 53.54c8.765 6.564 10.549 18.997 3.966 27.742-3.889 5.234-9.837 7.951-15.885 7.951z" style="" fill="#ffffff" data-original="#ffffff" class=""></path></g></svg>