<svg
  xmlns="http://www.w3.org/2000/svg"
  version="1.1"
  xmlns:xlink="http://www.w3.org/1999/xlink"
  width="512"
  height="512"
  x="0"
  y="0"
  viewBox="0 0 512 512"
  style="enable-background: new 0 0 512 512"
  xml:space="preserve"
  class=""
>
  <g>
    <path
      fill-rule="evenodd"
      d="M255.559 245.267a84.171 84.171 0 0 0 23.2-3.208l4.207 15.71-26.235 17.456-27.47-18.258 3.929-14.672a85.626 85.626 0 0 0 22.373 2.972zM256 413.315a25.1 25.1 0 1 0-25.1-25.1 25.109 25.109 0 0 0 25.1 25.1zm0-15.994a9.082 9.082 0 1 1 9.1-9.105 9.095 9.095 0 0 1-9.1 9.105zm-66.822-258.676h1.384c43.538 0 75.086-15.71 93.84-46.659 3.94-3.774 7.312-5.378 10.037-4.67 3.652.9 13.351 7.17 24.53 45.432a8.943 8.943 0 0 0 .3.849 69.057 69.057 0 0 1-105.818 81.382c-23.112-17.786-32.658-48.5-24.271-76.334zm-27.09 17.975a14.71 14.71 0 0 1 9.634-13.776 87.026 87.026 0 0 0-.807 27.269 14.771 14.771 0 0 1-8.827-13.493zm177.777 14.719a84.948 84.948 0 0 0-1.255-29.439h1a14.721 14.721 0 0 1 .252 29.439zM301.2 271.262c-3.212-.755-5.539-1.274-7.2-1.6l-22.832 15.191 13.828 9.2zm93.005 62.369a2587.956 2587.956 0 0 0-.754 58.784h-6.129V322.45a22.713 22.713 0 0 0-22.665-22.693h-64.106l16.885-23.73c.13-.189.247-.377.361-.566 8.971 2.359 20.754 5.567 36.2 9.907 31.232 8.681 38.2 13.823 40.208 48.263zm-253.53 129.456V322.45a6.659 6.659 0 0 1 6.666-6.652H364.66a6.659 6.659 0 0 1 6.665 6.652v140.637zm247.207 26.231a6.658 6.658 0 0 1-6.664 6.652H130.783a6.658 6.658 0 0 1-6.664-6.652v-10.237h263.763zm-269.336-96.9h6.129V322.45a22.712 22.712 0 0 1 22.666-22.693H212.9l-17.509-24.579c-9.111 2.359-21.242 5.661-37.392 10.19-31.231 8.681-38.2 13.823-40.208 48.263.472 19.485.724 39.205.754 58.784zm138.181-97.989 8 5.331h-16zm-37.587-25c-1.506.283-3.769.755-7.1 1.557l16.418 23.07 13.827-9.2-23.145-15.434zm-65.441.519c-18.1 5.048-30.194 9.766-38.476 19.013-8.269 9.2-12.157 21.985-13.424 44.064a8.548 8.548 0 0 0-.011.66c.539 22.127.8 44.584.758 66.71a8.018 8.018 0 0 0 8 8.02h14.13v54.679h-8.556a8.006 8.006 0 0 0-8 8.021v18.21a22.711 22.711 0 0 0 22.664 22.693h250.434a22.712 22.712 0 0 0 22.664-22.693v-18.21a8.007 8.007 0 0 0-8-8.021h-8.557v-54.686h14.13a8.02 8.02 0 0 0 8-8.02 2584.99 2584.99 0 0 1 .755-66.71c.008-.236 0-.424-.009-.66-1.266-22.079-5.155-34.865-13.424-44.064-8.282-9.247-20.378-13.965-38.475-19.013-36.42-10.19-52.245-14.106-59.715-15.663l-4.831-18.022a84.916 84.916 0 0 0 42.4-48.923h3.46a30.688 30.688 0 0 0 20.968-53.123 9.458 9.458 0 0 0 .515-1.557 276.81 276.81 0 0 0 3.545-19.39c.295-1.981.586-3.868.861-5.661 2.556-16.465 4.1-26.42-5.781-45.008a117.985 117.985 0 0 0-215.875 17.362 8.458 8.458 0 0 0-.321 1.274c-3.037 18.54-.265 37.93 8.206 57.651a30.716 30.716 0 0 0 23.162 48.4 85.891 85.891 0 0 0 28.8 40.385 82.909 82.909 0 0 0 14.446 8.963l-4.725 17.645c-7.474 1.561-23.299 5.477-59.717 15.667z"
      fill="currentColor"
      opacity="1"
      data-original="currentColor"
      class=""
    ></path>
  </g>
</svg>
